<svg xmlns="http://www.w3.org/2000/svg" width="91.17" height="95" viewBox="615.83 38 91.17 95"><path d="M690.64 93.57c-4.692 30.106-35.933 32.193-53.404 30.94a145.002 145.002 0 0 0-.577 2.706c-.686 3.375-.99 5.508-1.024 5.759a8.229 8.229 0 0 0-.004.025h-8.588s5.13-19.458 16.544-38.916a101.178 101.178 0 0 1 20.306-25.353 62.547 62.547 0 0 1 16.114-10.71c-25.971 9.523-44.612 40.32-54 59.342a218.251 218.251 0 0 0-1.858 3.858c-3.597-5.379-13.33-22.845-5.105-44.559a55.683 55.683 0 0 1 2.682-5.974C635.059 45.058 707 38 707 38s-9.521 17.09-15.36 49.604a262.612 262.612 0 0 0-1 5.966Z" fill="rgba(245, 197, 6, 1)" fill-rule="evenodd" data-name="Shape 3"/></svg>