<svg xmlns="http://www.w3.org/2000/svg" width="109" height="74.001" viewBox="253 62 109 74.001"><path d="M334.75 136h-57.906C263.675 136 253 125.458 253 112.454c0-10.68 7.247-19.596 17.117-22.478-.008-.154-.025-.306-.041-.457a5.473 5.473 0 0 1-.045-.61c0-9.289 7.625-16.818 17.031-16.818a17.043 17.043 0 0 1 5.357.931 27.273 27.273 0 0 1 19.39-10.909 27.58 27.58 0 0 1 2.503-.113 27.15 27.15 0 0 1 26.515 20.908C352.941 85.643 362 96.3 362 109.09A27.081 27.081 0 0 1 334.75 136Zm-20.438-26.91V88.91h-13.625v20.182h-10.431l17.244 17.028 17.244-17.028h-10.432Z" fill="rgba(245, 197, 6, 1)" fill-rule="evenodd" data-name="Shape 2"/></svg>