<svg xmlns="http://www.w3.org/2000/svg" width="19.019" height="18.977" viewBox="196.981 21 19.019 18.977"><path d="M210.83 25.894a2.478 2.478 0 0 0 .128.138 2.437 2.437 0 0 0 1.263.67c.72.14 1.492-.047 2.077-.558a2.481 2.481 0 0 0 .12-.112l1.4-1.398a4.83 4.83 0 0 1 .182 1.25 4.888 4.888 0 0 1-4.893 4.883 4.852 4.852 0 0 1-1.267-.186.097.097 0 0 0-.015.022.1.1 0 0 1-.017.025l-8.65 8.633a2.437 2.437 0 0 1-1.263.671 2.448 2.448 0 0 1-2.077-.558 2.481 2.481 0 0 1-.12-.113 2.438 2.438 0 0 1-.128-3.315 2.478 2.478 0 0 1 .128-.138l8.65-8.633a.091.091 0 0 1 .022-.015c.01-.005.02-.01.027-.017a4.826 4.826 0 0 1-.184-1.26A4.888 4.888 0 0 1 211.107 21c.435 0 .85.075 1.251.181l-1.4 1.397a2.438 2.438 0 0 0-.128 3.316ZM199.485 36.87a.611.611 0 1 0 .612.61.611.611 0 0 0-.612-.61Z" fill="rgba(185, 148, 3, 1)" fill-rule="evenodd" data-name="Shape 6"/></svg>